<?xml version="1.0" encoding="utf-8"?>
<!-- Generator: Adobe Illustrator 19.0.0, SVG Export Plug-In . SVG Version: 6.00 Build 0)  -->
<svg version="1.1" id="Capa_1" xmlns="http://www.w3.org/2000/svg" xmlns:xlink="http://www.w3.org/1999/xlink" x="0px" y="0px"
	 width="512px" height="512px" viewBox="-49 141 512 512" style="enable-background:new -49 141 512 512;" xml:space="preserve">
<style type="text/css">
	.st0{fill:#A5CDFF;}
	.st1{fill:#8CB4EB;}
</style>
<g>
	<path class="st0" d="M399.9,498.3c-54.6,38.4-130.3,25.1-168.6-29.5c-3.8-5.5-2.5-13,3-16.9c5.5-3.8,13-2.5,16.9,3
		c30.7,43.7,91.2,54.3,134.9,23.6c5.5-3.8,13-2.5,16.9,3S405.4,494.5,399.9,498.3z"/>
	<path class="st0" d="M319.3,614.1c-2.3,1.6-5.1,2.4-8,2.1C247,610.5,189,577,152,524.4c-34.5-49.2-22.6-117.3,26.6-151.8
		s117.3-22.6,151.8,26.6c3.8,5.5,2.5,13-3,16.9s-13,2.5-16.9-3c-26.8-38.3-79.8-47.5-118.1-20.7s-47.5,79.8-20.7,118.1
		c32.8,46.8,84.5,76.5,141.6,81.6c6.7,0.6,11.6,6.5,11,13.1C324.1,608.9,322.1,612.1,319.3,614.1z"/>
	<path class="st0" d="M427.8,538c-76.5,53.7-182.5,35.1-236.2-41.4c-19.2-27.3-12.5-65.2,14.8-84.3c27.3-19.1,65.2-12.5,84.3,14.8
		c11.5,16.4,34.2,20.4,50.6,8.9s20.4-34.2,8.9-50.6c-42.2-60.1-125.4-74.7-185.6-32.5s-74.7,125.4-32.5,185.6
		c18.3,26.1,41.2,48,67.9,65c5.6,3.6,7.3,11.1,3.7,16.7c-3.6,5.6-11.1,7.3-16.7,3.7c-29.5-18.8-54.6-42.9-74.7-71.5
		C62.4,481.3,79.7,383,150.7,333.1s169.4-32.6,219.3,38.4c19.2,27.3,12.5,65.2-14.8,84.3S290,468.3,270.9,441
		c-11.5-16.4-34.2-20.4-50.6-8.9c-16.4,11.5-20.4,34.2-8.9,50.6c46,65.6,136.8,81.5,202.4,35.5c5.5-3.8,13-2.5,16.9,3
		C434.6,526.6,433.2,534.1,427.8,538z"/>
	<path class="st0" d="M406.7,360.4c-5.5,3.8-13,2.5-16.9-3c-57.5-82-171-101.9-253-44.3s-101.9,171-44.3,253c3.8,5.5,2.5,13-3,16.9
		s-13,2.5-16.9-3c-65.2-92.9-42.7-221.6,50.2-286.8s221.6-42.7,286.8,50.2C413.5,349,412.2,356.6,406.7,360.4z"/>
	<path class="st0" d="M7.5,445.1c-2.3,1.6-5.2,2.5-8.3,2.1c-6.6-0.7-11.4-6.7-10.7-13.4c8.1-72.6,46.9-138.3,106.6-180.2
		c54.7-38.4,121.3-53.6,187.5-42.6c6.6,1.1,11.1,7.3,10,13.9c-1.1,6.6-7.3,11.1-13.9,10c-59.9-9.9-120.1,3.8-169.7,38.6
		c-54,37.9-89.1,97.3-96.4,163C12.2,440.1,10.3,443.1,7.5,445.1z"/>
	<path class="st0" d="M222.5,182.2c-1.7,1.2-3.7,2-5.9,2.1c-48.4,4.2-95.2,21.3-135.4,49.5c-31.5,22.1-57.6,49.9-77.6,82.8
		c-3.5,5.7-10.9,7.5-16.7,4c-5.7-3.5-7.5-10.9-4-16.7c21.8-35.7,50.2-66,84.4-90c43.6-30.6,94.5-49.2,147.2-53.8
		c6.7-0.6,12.5,4.4,13.1,11C228,175.7,225.9,179.8,222.5,182.2z"/>
</g>
<g>
	<path class="st1" d="M294.9,277.1c0.1-0.4,0.2-0.8,0.4-1.2c2-6.1-1.2-12.9-7.4-14.3c-55.1-12.8-115.1-3.2-164.9,31.7
		c-32,22.5-55.6,52.5-70.2,86c-2.7,6.2,0.5,13,6.8,15.5c0.1,0.1,0.3,0.1,0.4,0.2c5.7,2.3,12.4,0.1,14.8-5.5
		c12.8-29.7,33.7-56.4,62.1-76.3c43.7-30.7,96.3-39.2,144.6-28.2C287.3,286.2,293.1,282.9,294.9,277.1z"/>
	<path class="st1" d="M150.7,332.9c-51.9,36.4-74.9,98.6-64.2,157.2c1.4,7.7,9.7,12.1,16.9,8.9l0,0c5.2-2.3,7.9-8,6.8-13.6
		c-8.9-49.5,10.6-102,54.4-132.7c59.2-41.5,140.8-28,183.5,29.7c11.2,15.1,11.2,36.7-2.4,49.7c-16.8,16.2-43.5,12.6-55.8-6.3
		c-10.1-15.6-26.4-26.4-45-25.8c-57.5,1.9-79.7,59-53.4,96.5c16.3,23.3,37.6,41.1,61.3,53.2c6,3,13.2,0.9,16.4-5l0,0
		c3.1-5.9,0.9-13.3-5-16.3c-19.7-10-37.5-24.6-51.3-43.7c-10.8-14.8-10.7-35.2,2-48.2c16.7-17.1,44.1-13.8,56.6,5.5
		c10.1,15.6,26.4,26.4,45,25.8c57.5-1.9,79.6-59,53.4-96.5C320.2,300.3,221.8,283.1,150.7,332.9z"/>
	<path class="st1" d="M171.3,378.1c-46.2,38.4-53,108.5-11.6,156.6c7.2,8.3,14.4,16.5,22.4,23.8c5,4.6,12.5,4.2,17.3-0.7
		c0.1-0.1,0.1-0.1,0.2-0.2c4.5-4.6,4-12.2-0.7-16.6c-7.6-7-14.7-14.6-21.2-22.8c-28.8-36.7-26.7-91.4,9-121.3
		c38.5-32.3,95.7-24.1,124,16.2c3.8,5.5,11.4,6.8,16.9,3s6.8-11.4,3-16.9C294.1,347.5,220.9,337,171.3,378.1z"/>
	<path class="st1" d="M331.5,508c0.4-6.3-3.9-11.8-10.2-12.4C294,493,268,479,251.1,454.9c-3.8-5.5-11.4-6.8-16.9-3
		s-6.8,11.4-3,16.9c21.2,30.2,53.7,47.7,87.8,50.9c6.6,0.6,12.1-4.5,12.5-11.2C331.5,508.3,331.5,508.1,331.5,508z"/>
</g>
</svg>
